<svg xmlns="http://www.w3.org/2000/svg" viewBox="23 33 558 1445"><path fill="#111111" fill-rule="evenodd" d="M293.3,1473.1C287.1,1471.0 280.6,1466.9 278.6,1463.8C273.1,1455.3 271.5,1427.1 273.0,1360.1C276.4,1199.3 276.3,1157.8 272.5,1143.6C270.6,1136.3 270.6,1136.3 260.9,1129.5C225.4,1104.7 135.0,1016.9 135.0,1007.4C135.0,1004.9 131.2,998.3 120.0,981.0C106.9,960.9 103.1,953.8 94.5,934.5C80.0,901.8 68.8,868.0 62.5,838.2C58.4,818.5 56.0,811.0 52.6,806.9C45.5,798.5 41.8,777.1 40.0,735.1C39.0,710.2 37.8,703.1 34.3,701.5C28.6,699.0 27.5,686.5 27.6,625.5C27.6,569.1 28.5,553.1 34.5,497.5C36.4,479.9 38.2,462.8 38.5,459.5C41.1,432.9 45.5,417.6 59.7,386.5C63.0,379.4 68.3,367.0 71.5,359.0C81.8,333.2 89.4,319.8 103.7,302.9C118.2,285.7 122.5,279.7 142.4,249.6C164.2,216.6 176.2,199.3 191.6,179.0C204.9,161.4 209.3,156.5 213.7,154.3C216.7,152.8 217.7,151.6 219.0,147.3C221.2,140.6 224.8,136.2 245.5,115.1C268.7,91.5 296.2,66.8 311.6,55.7C330.3,42.3 379.1,32.6 393.5,39.5C399.1,42.1 413.2,56.6 421.2,68.0C429.7,80.0 446.9,108.6 455.4,125.0C467.3,147.9 471.2,157.8 474.5,173.2C475.0,175.6 475.5,176.0 478.5,176.0C483.3,176.0 484.7,178.6 486.5,190.9C489.3,209.3 493.0,219.8 518.4,281.4C526.5,301.0 529.8,310.5 536.5,333.8C539.3,343.3 542.9,353.0 549.2,367.5C568.5,411.9 579.2,498.4 577.7,596.0C576.7,660.0 573.1,692.8 561.5,746.0C558.5,759.5 554.7,778.1 553.0,787.5C547.3,818.6 545.5,823.7 536.7,836.2C531.2,844.0 527.7,851.0 526.1,857.3C524.6,863.6 518.3,876.1 508.0,893.0C503.6,900.4 495.1,916.0 489.3,927.5C477.5,951.0 469.2,964.3 465.1,966.5C459.6,969.3 447.9,984.0 428.0,1013.0C404.6,1047.1 388.1,1067.5 376.6,1076.9C358.6,1091.5 341.1,1124.4 336.3,1152.9C334.9,1161.3 334.8,1165.0 335.9,1182.5C337.6,1211.3 338.8,1246.9 340.0,1300.0C341.8,1384.4 344.0,1421.9 347.7,1428.0C349.1,1430.4 349.1,1431.2 347.5,1436.5C345.2,1444.7 339.8,1455.1 335.6,1459.5C332.5,1462.7 331.6,1463.2 328.9,1462.6C325.0,1461.9 321.4,1463.8 317.6,1468.5C312.5,1475.1 303.7,1476.7 293.3,1473.1ZM290.0,1092.6C290.0,1091.9 288.3,1089.1 286.3,1086.5C279.6,1077.7 274.0,1055.9 270.0,1023.9C267.2,1001.1 267.0,988.6 269.2,986.3C270.9,984.7 271.2,984.7 275.6,986.8C278.2,988.1 280.5,988.9 280.8,988.6C281.1,988.3 280.1,986.3 278.7,984.3C277.2,982.2 274.5,978.3 272.5,975.6C267.6,968.6 265.0,960.1 265.0,951.3C265.0,941.1 262.4,934.8 254.9,926.9C247.5,919.0 244.2,912.4 242.9,902.9C241.3,891.8 238.9,885.5 228.0,863.5C222.1,851.7 217.0,839.8 215.5,834.5C213.1,826.3 212.9,824.5 213.5,814.2L214.2,803.0L211.1,803.0C208.6,803.0 207.5,802.3 206.0,799.8C199.5,789.1 191.6,756.3 189.5,731.0C188.9,722.7 190.2,713.3 192.5,711.1C193.8,709.8 194.2,709.9 196.1,711.6C199.6,714.8 205.3,727.3 213.8,750.5C228.2,789.8 236.5,810.1 245.9,828.9C252.3,841.5 255.3,846.3 259.9,851.2C266.2,858.0 266.6,857.2 268.2,834.7C269.1,822.6 269.1,811.1 268.2,784.7C266.3,732.7 263.3,703.3 258.5,690.5C254.8,680.8 251.4,666.3 247.5,643.9C243.6,621.4 238.3,603.8 232.3,593.0C222.9,576.1 220.3,568.1 219.0,551.6C217.8,536.8 215.9,530.1 211.8,525.4C209.0,522.3 208.5,520.8 208.2,515.3C207.6,506.5 210.2,497.3 214.5,492.3C217.3,489.1 218.1,488.7 219.7,489.6C224.5,492.5 230.1,505.8 242.9,545.5C249.9,567.1 256.6,582.1 260.2,584.4C262.8,586.0 265.2,584.1 267.2,578.8C271.2,567.9 272.8,542.8 273.5,477.0C273.8,448.1 274.5,415.7 275.0,405.0C275.9,386.1 281.2,341.2 283.2,335.8C285.3,330.1 293.4,330.1 296.4,335.8C301.4,345.5 302.7,359.8 304.0,420.0C305.5,492.8 306.9,514.0 310.4,516.9C314.1,520.0 322.2,506.1 326.0,490.5C334.8,454.2 368.6,395.0 380.5,395.0C386.7,395.0 390.8,405.5 389.6,418.0C388.7,427.0 386.9,433.3 381.0,449.0C372.0,472.6 356.9,523.7 346.6,564.5C337.4,601.3 334.6,617.0 336.2,622.7C337.6,627.7 336.5,630.9 333.0,632.1C326.8,634.3 321.1,653.2 314.9,692.0C311.8,712.0 311.1,723.4 313.2,722.8C313.9,722.5 318.9,716.5 324.4,709.4C329.8,702.3 340.8,688.6 348.9,679.0C367.2,657.1 371.6,651.4 377.5,641.6C383.2,632.2 386.0,625.3 386.0,620.2C386.0,615.3 387.8,609.0 389.3,608.5C407.3,603.0 411.8,602.0 414.2,602.9C418.5,604.5 420.0,607.7 420.0,615.0C420.0,628.6 412.5,649.8 396.4,681.5C373.2,727.5 358.4,751.1 339.4,772.3C335.0,777.1 329.8,783.2 327.8,785.8C320.0,795.6 314.0,823.3 314.0,849.7C314.0,864.3 315.5,873.3 318.5,876.8C320.8,879.4 320.9,879.4 324.2,877.9C333.4,873.4 361.4,847.3 379.2,826.4C388.8,815.2 394.5,811.0 403.6,808.4C413.3,805.8 417.6,808.0 414.5,814.0C412.3,818.2 412.6,821.4 415.5,824.8C416.9,826.5 418.0,829.1 418.0,830.7C418.0,836.7 404.9,860.0 388.9,882.6C367.3,912.9 353.5,927.0 345.2,927.0C341.8,927.0 335.5,933.8 333.2,940.2C328.2,953.6 327.8,972.0 331.6,1008.1C333.0,1021.5 334.2,1032.6 334.4,1032.8C334.6,1032.9 339.9,1027.8 346.2,1021.3C376.8,989.7 382.3,983.4 394.6,966.0C445.0,894.6 508.7,752.1 511.6,704.0C512.1,695.8 511.9,693.8 510.1,689.3C507.7,683.1 508.0,681.8 512.3,679.9C516.6,678.0 517.7,673.6 519.1,653.5C522.2,609.0 514.5,500.4 504.0,439.0C497.6,401.7 480.2,344.3 458.8,289.5C445.7,256.0 438.7,236.6 436.1,227.0C434.9,222.3 433.0,215.1 431.9,211.0C425.5,187.1 388.8,116.9 376.0,104.2C370.3,98.4 360.9,99.3 345.5,107.0C314.0,122.7 269.9,167.1 225.2,228.0C209.4,249.5 201.2,262.8 197.4,273.3C193.7,283.5 189.7,290.0 187.2,290.0C184.5,290.0 176.8,298.5 170.0,309.0C162.2,321.2 146.2,353.1 138.0,373.0C129.7,393.2 120.5,411.8 113.5,421.9C106.1,432.8 103.7,437.9 100.6,448.6C90.3,484.1 85.4,554.9 87.9,635.0C90.3,712.1 93.7,755.8 99.6,784.3C103.1,801.1 106.2,808.8 112.1,815.6C118.9,823.3 121.9,829.6 123.0,838.6C124.4,849.4 125.9,853.6 129.8,857.8C131.6,859.8 133.8,862.6 134.5,864.0C136.9,868.7 140.8,882.5 143.5,896.0C147.1,914.5 150.1,922.7 154.4,926.5C159.1,930.6 163.0,937.4 169.0,952.0C178.1,974.3 192.4,995.4 214.2,1018.7C221.0,1025.9 234.2,1040.1 243.5,1050.1C269.0,1077.7 278.0,1086.9 283.0,1090.6C287.8,1094.2 290.0,1094.8 290.0,1092.6Z"/></svg>